# xmcd CD database file generated by GCD 2.95
# 
# Track frame offsets:
#       150
#       12214
#       21654
#       34756
#       45771
#       57254
#       68552
#       82491
# 
# Disc length: 1284 seconds
# 
# Revision: 3
# Processed by: cddbd v1.4PL0 Copyright (c) Steve Scherf et al.
# Submitted via: GCD 2.95
# 
DISCID=62050208
DTITLE=Gina Lee - Introducing: Gina Lee and Her Texas Three
DYEAR=1900
DGENRE=country
TTITLE0=Gotcha on My Mind
TTITLE1=Blue Moon of Kentucky
TTITLE2=Living Free
TTITLE3=Texas Plains
TTITLE4=Kentucky Waltz
TTITLE5=Catfight
TTITLE6=You're Only in My Arms
TTITLE7=Who Said So Long
EXTD=
EXTT0=
EXTT1=
EXTT2=
EXTT3=
EXTT4=
EXTT5=
EXTT6=
EXTT7=
PLAYORDER=
